<?xml version="1.0" encoding="UTF-8" standalone="no"?>
<!DOCTYPE svg PUBLIC "-//W3C//DTD SVG 1.1//EN"
 "http://www.w3.org/Graphics/SVG/1.1/DTD/svg11.dtd">
<!-- Generated by graphviz version 15.1.1 (20260805.0921)
 -->
<!-- Title: StudentUserFlow Pages: 1 -->
<svg width="1019pt" height="1817pt"
 viewBox="0.00 0.00 1019.00 1817.00" xmlns="http://www.w3.org/2000/svg" xmlns:xlink="http://www.w3.org/1999/xlink">
<g id="graph0" class="graph" transform="scale(1 1) rotate(0) translate(4 1812.5)">
<title>StudentUserFlow</title>
<polygon fill="white" stroke="none" points="-4,4 -4,-1812.5 1014.88,-1812.5 1014.88,4 -4,4"/>
<!-- start -->
<g id="node1" class="node">
<title>start</title>
<ellipse fill="black" stroke="black" cx="402.88" cy="-1799.5" rx="9" ry="9"/>
</g>
<!-- home -->
<g id="node2" class="node">
<title>home</title>
<path fill="#f5f6f8" stroke="black" d="M487.75,-1753.5C487.75,-1753.5 318,-1753.5 318,-1753.5 312,-1753.5 306,-1747.5 306,-1741.5 306,-1741.5 306,-1729.5 306,-1729.5 306,-1723.5 312,-1717.5 318,-1717.5 318,-1717.5 487.75,-1717.5 487.75,-1717.5 493.75,-1717.5 499.75,-1723.5 499.75,-1729.5 499.75,-1729.5 499.75,-1741.5 499.75,-1741.5 499.75,-1747.5 493.75,-1753.5 487.75,-1753.5"/>
<text xml:space="preserve" text-anchor="middle" x="402.88" y="-1736.85" font-family="Helvetica,sans-Serif" font-size="12.00">Home (/)</text>
<text xml:space="preserve" text-anchor="middle" x="402.88" y="-1724.1" font-family="Helvetica,sans-Serif" font-size="12.00">Public browse, no sign&#45;in needed</text>
</g>
<!-- start&#45;&gt;home -->
<g id="edge1" class="edge">
<title>start&#45;&gt;home</title>
<path fill="none" stroke="black" d="M402.88,-1790.06C402.88,-1790.06 402.88,-1765.5 402.88,-1765.5"/>
<polygon fill="black" stroke="black" points="406.38,-1765.5 402.88,-1755.5 399.38,-1765.5 406.38,-1765.5"/>
</g>
<!-- actingAs -->
<g id="node3" class="node">
<title>actingAs</title>
<polygon fill="#fdf1dc" stroke="black" points="402.88,-1680.5 259.38,-1647 402.87,-1613.5 546.38,-1647 402.88,-1680.5"/>
<text xml:space="preserve" text-anchor="middle" x="402.88" y="-1648.35" font-family="Helvetica,sans-Serif" font-size="12.00">Acting as = STUDENT?</text>
<text xml:space="preserve" text-anchor="middle" x="402.88" y="-1635.6" font-family="Helvetica,sans-Serif" font-size="12.00">(&quot;Acting as&quot; selector)</text>
</g>
<!-- home&#45;&gt;actingAs -->
<g id="edge2" class="edge">
<title>home&#45;&gt;actingAs</title>
<path fill="none" stroke="black" d="M402.88,-1717.16C402.88,-1717.16 402.88,-1692.21 402.88,-1692.21"/>
<polygon fill="black" stroke="black" points="406.38,-1692.21 402.88,-1682.21 399.38,-1692.21 406.38,-1692.21"/>
</g>
<!-- restrictedNote -->
<g id="node4" class="node">
<title>restrictedNote</title>
<path fill="#fbe2df" stroke="black" d="M217.75,-1481.25C217.75,-1481.25 12,-1481.25 12,-1481.25 6,-1481.25 0,-1475.25 0,-1469.25 0,-1469.25 0,-1457.25 0,-1457.25 0,-1451.25 6,-1445.25 12,-1445.25 12,-1445.25 217.75,-1445.25 217.75,-1445.25 223.75,-1445.25 229.75,-1451.25 229.75,-1457.25 229.75,-1457.25 229.75,-1469.25 229.75,-1469.25 229.75,-1475.25 223.75,-1481.25 217.75,-1481.25"/>
<text xml:space="preserve" text-anchor="middle" x="114.88" y="-1464.6" font-family="Helvetica,sans-Serif" font-size="12.00">Student / Notifications tabs hidden.</text>
<text xml:space="preserve" text-anchor="middle" x="114.88" y="-1451.85" font-family="Helvetica,sans-Serif" font-size="12.00">Direct /student URL &#45;&gt; &quot;Restricted&quot; page</text>
</g>
<!-- actingAs&#45;&gt;restrictedNote -->
<g id="edge3" class="edge">
<title>actingAs&#45;&gt;restrictedNote</title>
<path fill="none" stroke="black" d="M292.58,-1639.09C292.58,-1603.88 292.58,-1463 292.58,-1463 292.58,-1463 241.69,-1463 241.69,-1463"/>
<polygon fill="black" stroke="black" points="241.69,-1459.5 231.69,-1463 241.69,-1466.5 241.69,-1459.5"/>
<text xml:space="preserve" text-anchor="middle" x="391.62" y="-1586" font-family="Helvetica,sans-Serif" font-size="10.00">No (Staff/Admin/none)</text>
</g>
<!-- homeChoice -->
<g id="node5" class="node">
<title>homeChoice</title>
<polygon fill="#fdf1dc" stroke="black" points="521.88,-1566.25 429.38,-1532.75 521.88,-1499.25 614.38,-1532.75 521.88,-1566.25"/>
<text xml:space="preserve" text-anchor="middle" x="521.88" y="-1534.1" font-family="Helvetica,sans-Serif" font-size="12.00">What does the</text>
<text xml:space="preserve" text-anchor="middle" x="521.88" y="-1521.35" font-family="Helvetica,sans-Serif" font-size="12.00">student click?</text>
</g>
<!-- actingAs&#45;&gt;homeChoice -->
<g id="edge5" class="edge">
<title>actingAs&#45;&gt;homeChoice</title>
<path fill="none" stroke="black" d="M487.88,-1632.99C487.88,-1632.99 487.88,-1565.8 487.88,-1565.8"/>
<polygon fill="black" stroke="black" points="491.38,-1565.8 487.88,-1555.8 484.38,-1565.8 491.38,-1565.8"/>
<text xml:space="preserve" text-anchor="middle" x="472.12" y="-1586" font-family="Helvetica,sans-Serif" font-size="10.00">Yes</text>
</g>
<!-- end -->
<g id="node39" class="node">
<title>end</title>
<ellipse fill="black" stroke="black" cx="672.88" cy="-13" rx="9" ry="9"/>
<ellipse fill="none" stroke="black" cx="672.88" cy="-13" rx="13" ry="13"/>
</g>
<!-- restrictedNote&#45;&gt;end -->
<g id="edge4" class="edge">
<title>restrictedNote&#45;&gt;end</title>
<path fill="none" stroke="black" d="M41.75,-1444.91C41.75,-1277.03 41.75,-13 41.75,-13 41.75,-13 647.89,-13 647.89,-13"/>
<polygon fill="black" stroke="black" points="647.89,-16.5 657.89,-13 647.89,-9.5 647.89,-16.5"/>
</g>
<!-- reportLostBtn -->
<g id="node6" class="node">
<title>reportLostBtn</title>
<path fill="#e4f1ea" stroke="black" d="M347,-1373.25C347,-1373.25 262.75,-1373.25 262.75,-1373.25 256.75,-1373.25 250.75,-1367.25 250.75,-1361.25 250.75,-1361.25 250.75,-1349.25 250.75,-1349.25 250.75,-1343.25 256.75,-1337.25 262.75,-1337.25 262.75,-1337.25 347,-1337.25 347,-1337.25 353,-1337.25 359,-1343.25 359,-1349.25 359,-1349.25 359,-1361.25 359,-1361.25 359,-1367.25 353,-1373.25 347,-1373.25"/>
<text xml:space="preserve" text-anchor="middle" x="304.88" y="-1356.6" font-family="Helvetica,sans-Serif" font-size="12.00">&quot;I lost something&quot;</text>
<text xml:space="preserve" text-anchor="middle" x="304.88" y="-1343.85" font-family="Helvetica,sans-Serif" font-size="12.00">button</text>
</g>
<!-- homeChoice&#45;&gt;reportLostBtn -->
<g id="edge6" class="edge">
<title>homeChoice&#45;&gt;reportLostBtn</title>
<path fill="none" stroke="black" d="M428.71,-1533C378.12,-1533 325.79,-1533 325.79,-1533 325.79,-1533 325.79,-1385.12 325.79,-1385.12"/>
<polygon fill="black" stroke="black" points="329.29,-1385.12 325.79,-1375.12 322.29,-1385.12 329.29,-1385.12"/>
<text xml:space="preserve" text-anchor="middle" x="380.5" y="-1459.38" font-family="Helvetica,sans-Serif" font-size="10.00">&quot;I lost something&quot;</text>
</g>
<!-- studentTab -->
<g id="node7" class="node">
<title>studentTab</title>
<path fill="#e4f1ea" stroke="black" d="M519,-1427.25C519,-1427.25 434.75,-1427.25 434.75,-1427.25 428.75,-1427.25 422.75,-1421.25 422.75,-1415.25 422.75,-1415.25 422.75,-1403.25 422.75,-1403.25 422.75,-1397.25 428.75,-1391.25 434.75,-1391.25 434.75,-1391.25 519,-1391.25 519,-1391.25 525,-1391.25 531,-1397.25 531,-1403.25 531,-1403.25 531,-1415.25 531,-1415.25 531,-1421.25 525,-1427.25 519,-1427.25"/>
<text xml:space="preserve" text-anchor="middle" x="476.88" y="-1404.22" font-family="Helvetica,sans-Serif" font-size="12.00">&quot;Student&quot; nav tab</text>
</g>
<!-- homeChoice&#45;&gt;studentTab -->
<g id="edge7" class="edge">
<title>homeChoice&#45;&gt;studentTab</title>
<path fill="none" stroke="black" d="M480.19,-1513.99C480.19,-1513.99 480.19,-1438.89 480.19,-1438.89"/>
<polygon fill="black" stroke="black" points="483.69,-1438.89 480.19,-1428.89 476.69,-1438.89 483.69,-1438.89"/>
<text xml:space="preserve" text-anchor="middle" x="506.5" y="-1459.38" font-family="Helvetica,sans-Serif" font-size="10.00">&quot;Student&quot;</text>
</g>
<!-- foundItemsTab -->
<g id="node8" class="node">
<title>foundItemsTab</title>
<path fill="#e4f1ea" stroke="black" d="M622.38,-1373.25C622.38,-1373.25 513.38,-1373.25 513.38,-1373.25 507.38,-1373.25 501.38,-1367.25 501.38,-1361.25 501.38,-1361.25 501.38,-1349.25 501.38,-1349.25 501.38,-1343.25 507.38,-1337.25 513.38,-1337.25 513.38,-1337.25 622.38,-1337.25 622.38,-1337.25 628.38,-1337.25 634.38,-1343.25 634.38,-1349.25 634.38,-1349.25 634.38,-1361.25 634.38,-1361.25 634.38,-1367.25 628.38,-1373.25 622.38,-1373.25"/>
<text xml:space="preserve" text-anchor="middle" x="567.88" y="-1350.22" font-family="Helvetica,sans-Serif" font-size="12.00">&quot;Found Items&quot; nav tab</text>
</g>
<!-- homeChoice&#45;&gt;foundItemsTab -->
<g id="edge8" class="edge">
<title>homeChoice&#45;&gt;foundItemsTab</title>
<path fill="none" stroke="black" d="M558.79,-1512.39C558.79,-1512.39 558.79,-1385.02 558.79,-1385.02"/>
<polygon fill="black" stroke="black" points="562.29,-1385.02 558.79,-1375.02 555.29,-1385.02 562.29,-1385.02"/>
<text xml:space="preserve" text-anchor="middle" x="590" y="-1459.38" font-family="Helvetica,sans-Serif" font-size="10.00">&quot;Found Items&quot;</text>
</g>
<!-- trackTab -->
<g id="node9" class="node">
<title>trackTab</title>
<path fill="#e4f1ea" stroke="black" d="M736.25,-1255C736.25,-1255 629.5,-1255 629.5,-1255 623.5,-1255 617.5,-1249 617.5,-1243 617.5,-1243 617.5,-1231 617.5,-1231 617.5,-1225 623.5,-1219 629.5,-1219 629.5,-1219 736.25,-1219 736.25,-1219 742.25,-1219 748.25,-1225 748.25,-1231 748.25,-1231 748.25,-1243 748.25,-1243 748.25,-1249 742.25,-1255 736.25,-1255"/>
<text xml:space="preserve" text-anchor="middle" x="682.88" y="-1231.97" font-family="Helvetica,sans-Serif" font-size="12.00">&quot;Track Claim&quot; nav tab</text>
</g>
<!-- homeChoice&#45;&gt;trackTab -->
<g id="edge9" class="edge">
<title>homeChoice&#45;&gt;trackTab</title>
<path fill="none" stroke="black" d="M614.83,-1533C651.81,-1533 685.75,-1533 685.75,-1533 685.75,-1533 685.75,-1266.58 685.75,-1266.58"/>
<polygon fill="black" stroke="black" points="689.25,-1266.58 685.75,-1256.58 682.25,-1266.58 689.25,-1266.58"/>
<text xml:space="preserve" text-anchor="middle" x="689.25" y="-1405.38" font-family="Helvetica,sans-Serif" font-size="10.00">&quot;Track Claim&quot;</text>
</g>
<!-- notifTab -->
<g id="node10" class="node">
<title>notifTab</title>
<path fill="#e4f1ea" stroke="black" d="M893.38,-1427.25C893.38,-1427.25 784.38,-1427.25 784.38,-1427.25 778.38,-1427.25 772.38,-1421.25 772.38,-1415.25 772.38,-1415.25 772.38,-1403.25 772.38,-1403.25 772.38,-1397.25 778.38,-1391.25 784.38,-1391.25 784.38,-1391.25 893.38,-1391.25 893.38,-1391.25 899.38,-1391.25 905.38,-1397.25 905.38,-1403.25 905.38,-1403.25 905.38,-1415.25 905.38,-1415.25 905.38,-1421.25 899.38,-1427.25 893.38,-1427.25"/>
<text xml:space="preserve" text-anchor="middle" x="838.88" y="-1404.22" font-family="Helvetica,sans-Serif" font-size="12.00">&quot;Notifications&quot; nav tab</text>
</g>
<!-- homeChoice&#45;&gt;notifTab -->
<g id="edge10" class="edge">
<title>homeChoice&#45;&gt;notifTab</title>
<path fill="none" stroke="black" d="M586.58,-1522.2C586.58,-1492.27 586.58,-1409 586.58,-1409 586.58,-1409 760.41,-1409 760.41,-1409"/>
<polygon fill="black" stroke="black" points="760.41,-1412.5 770.41,-1409 760.41,-1405.5 760.41,-1412.5"/>
<text xml:space="preserve" text-anchor="middle" x="797" y="-1459.38" font-family="Helvetica,sans-Serif" font-size="10.00">&quot;Notifications&quot;</text>
</g>
<!-- reportForm -->
<g id="node11" class="node">
<title>reportForm</title>
<path fill="#f5f6f8" stroke="black" d="M340.5,-1086.75C340.5,-1086.75 193.25,-1086.75 193.25,-1086.75 187.25,-1086.75 181.25,-1080.75 181.25,-1074.75 181.25,-1074.75 181.25,-1039.75 181.25,-1039.75 181.25,-1033.75 187.25,-1027.75 193.25,-1027.75 193.25,-1027.75 340.5,-1027.75 340.5,-1027.75 346.5,-1027.75 352.5,-1033.75 352.5,-1039.75 352.5,-1039.75 352.5,-1074.75 352.5,-1074.75 352.5,-1080.75 346.5,-1086.75 340.5,-1086.75"/>
<text xml:space="preserve" text-anchor="middle" x="266.88" y="-1071.35" font-family="Helvetica,sans-Serif" font-size="12.00">Report a Lost Item form</text>
<text xml:space="preserve" text-anchor="middle" x="266.88" y="-1058.6" font-family="Helvetica,sans-Serif" font-size="12.00">(/student/report&#45;lost)</text>
<text xml:space="preserve" text-anchor="middle" x="266.88" y="-1045.85" font-family="Helvetica,sans-Serif" font-size="12.00">title, description, color, brand,</text>
<text xml:space="preserve" text-anchor="middle" x="266.88" y="-1033.1" font-family="Helvetica,sans-Serif" font-size="12.00">location, date/time, photo</text>
</g>
<!-- reportLostBtn&#45;&gt;reportForm -->
<g id="edge11" class="edge">
<title>reportLostBtn&#45;&gt;reportForm</title>
<path fill="none" stroke="black" d="M268.94,-1337.06C268.94,-1337.06 268.94,-1098.57 268.94,-1098.57"/>
<polygon fill="black" stroke="black" points="272.44,-1098.57 268.94,-1088.57 265.44,-1098.57 272.44,-1098.57"/>
</g>
<!-- studentDash -->
<g id="node26" class="node">
<title>studentDash</title>
<path fill="#f5f6f8" stroke="black" d="M562.62,-1314.12C562.62,-1314.12 299.12,-1314.12 299.12,-1314.12 293.12,-1314.12 287.12,-1308.12 287.12,-1302.12 287.12,-1302.12 287.12,-1290.12 287.12,-1290.12 287.12,-1284.12 293.12,-1278.12 299.12,-1278.12 299.12,-1278.12 562.62,-1278.12 562.62,-1278.12 568.62,-1278.12 574.62,-1284.12 574.62,-1290.12 574.62,-1290.12 574.62,-1302.12 574.62,-1302.12 574.62,-1308.12 568.62,-1314.12 562.62,-1314.12"/>
<text xml:space="preserve" text-anchor="middle" x="430.88" y="-1297.47" font-family="Helvetica,sans-Serif" font-size="12.00">Student Dashboard (/student)</text>
<text xml:space="preserve" text-anchor="middle" x="430.88" y="-1284.72" font-family="Helvetica,sans-Serif" font-size="12.00">Quick Actions + Your Lost Reports + Recent Claims</text>
</g>
<!-- studentTab&#45;&gt;studentDash -->
<g id="edge32" class="edge">
<title>studentTab&#45;&gt;studentDash</title>
<path fill="none" stroke="black" d="M462.06,-1390.82C462.06,-1390.82 462.06,-1326.06 462.06,-1326.06"/>
<polygon fill="black" stroke="black" points="465.56,-1326.06 462.06,-1316.06 458.56,-1326.06 465.56,-1326.06"/>
</g>
<!-- foundItemsPage -->
<g id="node28" class="node">
<title>foundItemsPage</title>
<path fill="#f5f6f8" stroke="black" d="M572.12,-1075.25C572.12,-1075.25 389.62,-1075.25 389.62,-1075.25 383.62,-1075.25 377.62,-1069.25 377.62,-1063.25 377.62,-1063.25 377.62,-1051.25 377.62,-1051.25 377.62,-1045.25 383.62,-1039.25 389.62,-1039.25 389.62,-1039.25 572.12,-1039.25 572.12,-1039.25 578.12,-1039.25 584.12,-1045.25 584.12,-1051.25 584.12,-1051.25 584.12,-1063.25 584.12,-1063.25 584.12,-1069.25 578.12,-1075.25 572.12,-1075.25"/>
<text xml:space="preserve" text-anchor="middle" x="480.88" y="-1058.6" font-family="Helvetica,sans-Serif" font-size="12.00">Found Items (/found&#45;items)</text>
<text xml:space="preserve" text-anchor="middle" x="480.88" y="-1045.85" font-family="Helvetica,sans-Serif" font-size="12.00">Search + category filter, browse grid</text>
</g>
<!-- foundItemsTab&#45;&gt;foundItemsPage -->
<g id="edge37" class="edge">
<title>foundItemsTab&#45;&gt;foundItemsPage</title>
<path fill="none" stroke="black" d="M579.38,-1337.06C579.38,-1337.06 579.38,-1087.1 579.38,-1087.1"/>
<polygon fill="black" stroke="black" points="582.88,-1087.1 579.38,-1077.1 575.88,-1087.1 582.88,-1087.1"/>
</g>
<!-- trackForm -->
<g id="node31" class="node">
<title>trackForm</title>
<path fill="#f5f6f8" stroke="black" d="M725.12,-1080.38C725.12,-1080.38 614.62,-1080.38 614.62,-1080.38 608.62,-1080.38 602.62,-1074.38 602.62,-1068.38 602.62,-1068.38 602.62,-1046.12 602.62,-1046.12 602.62,-1040.12 608.62,-1034.12 614.62,-1034.12 614.62,-1034.12 725.12,-1034.12 725.12,-1034.12 731.12,-1034.12 737.12,-1040.12 737.12,-1046.12 737.12,-1046.12 737.12,-1068.38 737.12,-1068.38 737.12,-1074.38 731.12,-1080.38 725.12,-1080.38"/>
<text xml:space="preserve" text-anchor="middle" x="669.88" y="-1064.97" font-family="Helvetica,sans-Serif" font-size="12.00">Track Claim Status</text>
<text xml:space="preserve" text-anchor="middle" x="669.88" y="-1052.22" font-family="Helvetica,sans-Serif" font-size="12.00">(/claims/track)</text>
<text xml:space="preserve" text-anchor="middle" x="669.88" y="-1039.47" font-family="Helvetica,sans-Serif" font-size="12.00">enter CLM&#45;xxxxx code</text>
</g>
<!-- trackTab&#45;&gt;trackForm -->
<g id="edge41" class="edge">
<title>trackTab&#45;&gt;trackForm</title>
<path fill="none" stroke="black" d="M677.31,-1218.78C677.31,-1218.78 677.31,-1092.11 677.31,-1092.11"/>
<polygon fill="black" stroke="black" points="680.81,-1092.11 677.31,-1082.11 673.81,-1092.11 680.81,-1092.11"/>
</g>
<!-- notifPage -->
<g id="node35" class="node">
<title>notifPage</title>
<path fill="#f5f6f8" stroke="black" d="M952.62,-1319.25C952.62,-1319.25 749.12,-1319.25 749.12,-1319.25 743.12,-1319.25 737.12,-1313.25 737.12,-1307.25 737.12,-1307.25 737.12,-1285 737.12,-1285 737.12,-1279 743.12,-1273 749.12,-1273 749.12,-1273 952.62,-1273 952.62,-1273 958.62,-1273 964.62,-1279 964.62,-1285 964.62,-1285 964.62,-1307.25 964.62,-1307.25 964.62,-1313.25 958.62,-1319.25 952.62,-1319.25"/>
<text xml:space="preserve" text-anchor="middle" x="850.88" y="-1303.85" font-family="Helvetica,sans-Serif" font-size="12.00">Notifications (/notifications)</text>
<text xml:space="preserve" text-anchor="middle" x="850.88" y="-1291.1" font-family="Helvetica,sans-Serif" font-size="12.00">match confirmed, claim approved/</text>
<text xml:space="preserve" text-anchor="middle" x="850.88" y="-1278.35" font-family="Helvetica,sans-Serif" font-size="12.00">rejected/info&#45;requested, handover ready</text>
</g>
<!-- notifTab&#45;&gt;notifPage -->
<g id="edge47" class="edge">
<title>notifTab&#45;&gt;notifPage</title>
<path fill="none" stroke="black" d="M838.88,-1390.82C838.88,-1390.82 838.88,-1331.17 838.88,-1331.17"/>
<polygon fill="black" stroke="black" points="842.38,-1331.17 838.88,-1321.17 835.38,-1331.17 842.38,-1331.17"/>
</g>
<!-- reportValid -->
<g id="node12" class="node">
<title>reportValid</title>
<polygon fill="#fdf1dc" stroke="black" points="334.88,-980.5 237.88,-947 334.87,-913.5 431.88,-947 334.88,-980.5"/>
<text xml:space="preserve" text-anchor="middle" x="334.88" y="-948.35" font-family="Helvetica,sans-Serif" font-size="12.00">Required fields</text>
<text xml:space="preserve" text-anchor="middle" x="334.88" y="-935.6" font-family="Helvetica,sans-Serif" font-size="12.00">filled &amp; valid?</text>
</g>
<!-- reportForm&#45;&gt;reportValid -->
<g id="edge12" class="edge">
<title>reportForm&#45;&gt;reportValid</title>
<path fill="none" stroke="black" d="M295.19,-1027.41C295.19,-1027.41 295.19,-978.62 295.19,-978.62"/>
<polygon fill="black" stroke="black" points="298.69,-978.62 295.19,-968.62 291.69,-978.62 298.69,-978.62"/>
</g>
<!-- reportError -->
<g id="node13" class="node">
<title>reportError</title>
<path fill="#fbe2df" stroke="black" d="M288.75,-866.25C288.75,-866.25 131,-866.25 131,-866.25 125,-866.25 119,-860.25 119,-854.25 119,-854.25 119,-842.25 119,-842.25 119,-836.25 125,-830.25 131,-830.25 131,-830.25 288.75,-830.25 288.75,-830.25 294.75,-830.25 300.75,-836.25 300.75,-842.25 300.75,-842.25 300.75,-854.25 300.75,-854.25 300.75,-860.25 294.75,-866.25 288.75,-866.25"/>
<text xml:space="preserve" text-anchor="middle" x="209.88" y="-849.6" font-family="Helvetica,sans-Serif" font-size="12.00">Browser blocks submit,</text>
<text xml:space="preserve" text-anchor="middle" x="209.88" y="-836.85" font-family="Helvetica,sans-Serif" font-size="12.00">shows &quot;Please fill out this field&quot;</text>
</g>
<!-- reportValid&#45;&gt;reportError -->
<g id="edge13" class="edge">
<title>reportValid&#45;&gt;reportError</title>
<path fill="none" stroke="black" d="M269.31,-935.67C269.31,-935.67 269.31,-877.98 269.31,-877.98"/>
<polygon fill="black" stroke="black" points="272.81,-877.98 269.31,-867.98 265.81,-877.98 272.81,-877.98"/>
<text xml:space="preserve" text-anchor="middle" x="295.25" y="-886" font-family="Helvetica,sans-Serif" font-size="10.00">No</text>
</g>
<!-- reportSaved -->
<g id="node14" class="node">
<title>reportSaved</title>
<path fill="#e4f1ea" stroke="black" d="M483.12,-866.25C483.12,-866.25 330.62,-866.25 330.62,-866.25 324.62,-866.25 318.62,-860.25 318.62,-854.25 318.62,-854.25 318.62,-842.25 318.62,-842.25 318.62,-836.25 324.62,-830.25 330.62,-830.25 330.62,-830.25 483.12,-830.25 483.12,-830.25 489.12,-830.25 495.12,-836.25 495.12,-842.25 495.12,-842.25 495.12,-854.25 495.12,-854.25 495.12,-860.25 489.12,-866.25 483.12,-866.25"/>
<text xml:space="preserve" text-anchor="middle" x="406.88" y="-849.6" font-family="Helvetica,sans-Serif" font-size="12.00">POST /api/reports</text>
<text xml:space="preserve" text-anchor="middle" x="406.88" y="-836.85" font-family="Helvetica,sans-Serif" font-size="12.00">Report saved (status = OPEN)</text>
</g>
<!-- reportValid&#45;&gt;reportSaved -->
<g id="edge15" class="edge">
<title>reportValid&#45;&gt;reportSaved</title>
<path fill="none" stroke="black" d="M375.25,-927.02C375.25,-927.02 375.25,-878.05 375.25,-878.05"/>
<polygon fill="black" stroke="black" points="378.75,-878.05 375.25,-868.05 371.75,-878.05 378.75,-878.05"/>
<text xml:space="preserve" text-anchor="middle" x="379.12" y="-886" font-family="Helvetica,sans-Serif" font-size="10.00">Yes</text>
</g>
<!-- reportError&#45;&gt;reportForm -->
<g id="edge14" class="edge">
<title>reportError&#45;&gt;reportForm</title>
<path fill="none" stroke="black" d="M209.56,-866.43C209.56,-866.43 209.56,-1015.82 209.56,-1015.82"/>
<polygon fill="black" stroke="black" points="206.06,-1015.82 209.56,-1025.82 213.06,-1015.82 206.06,-1015.82"/>
</g>
<!-- matchResults -->
<g id="node15" class="node">
<title>matchResults</title>
<path fill="#f5f6f8" stroke="black" d="M506.75,-758.25C506.75,-758.25 307,-758.25 307,-758.25 301,-758.25 295,-752.25 295,-746.25 295,-746.25 295,-734.25 295,-734.25 295,-728.25 301,-722.25 307,-722.25 307,-722.25 506.75,-722.25 506.75,-722.25 512.75,-722.25 518.75,-728.25 518.75,-734.25 518.75,-734.25 518.75,-746.25 518.75,-746.25 518.75,-752.25 512.75,-758.25 506.75,-758.25"/>
<text xml:space="preserve" text-anchor="middle" x="406.88" y="-741.6" font-family="Helvetica,sans-Serif" font-size="12.00">Match Results (/matches/:id)</text>
<text xml:space="preserve" text-anchor="middle" x="406.88" y="-728.85" font-family="Helvetica,sans-Serif" font-size="12.00">Ranked candidates + score breakdown</text>
</g>
<!-- reportSaved&#45;&gt;matchResults -->
<g id="edge16" class="edge">
<title>reportSaved&#45;&gt;matchResults</title>
<path fill="none" stroke="black" d="M406.88,-829.93C406.88,-829.93 406.88,-770.17 406.88,-770.17"/>
<polygon fill="black" stroke="black" points="410.38,-770.17 406.88,-760.17 403.38,-770.17 410.38,-770.17"/>
<text xml:space="preserve" text-anchor="middle" x="433.88" y="-790.38" font-family="Helvetica,sans-Serif" font-size="10.00">auto&#45;redirect</text>
</g>
<!-- matchChoice -->
<g id="node16" class="node">
<title>matchChoice</title>
<polygon fill="#fdf1dc" stroke="black" points="406.88,-650.25 305.38,-616.75 406.87,-583.25 508.38,-616.75 406.88,-650.25"/>
<text xml:space="preserve" text-anchor="middle" x="406.88" y="-618.1" font-family="Helvetica,sans-Serif" font-size="12.00">Student action</text>
<text xml:space="preserve" text-anchor="middle" x="406.88" y="-605.35" font-family="Helvetica,sans-Serif" font-size="12.00">on a candidate?</text>
</g>
<!-- matchResults&#45;&gt;matchChoice -->
<g id="edge17" class="edge">
<title>matchResults&#45;&gt;matchChoice</title>
<path fill="none" stroke="black" d="M406.88,-721.76C406.88,-721.76 406.88,-661.8 406.88,-661.8"/>
<polygon fill="black" stroke="black" points="410.38,-661.8 406.88,-651.8 403.38,-661.8 410.38,-661.8"/>
</g>
<!-- matchConfirm -->
<g id="node17" class="node">
<title>matchConfirm</title>
<path fill="#e4f1ea" stroke="black" d="M724.62,-536C724.62,-536 503.12,-536 503.12,-536 497.12,-536 491.12,-530 491.12,-524 491.12,-524 491.12,-501.75 491.12,-501.75 491.12,-495.75 497.12,-489.75 503.12,-489.75 503.12,-489.75 724.62,-489.75 724.62,-489.75 730.62,-489.75 736.62,-495.75 736.62,-501.75 736.62,-501.75 736.62,-524 736.62,-524 736.62,-530 730.62,-536 724.62,-536"/>
<text xml:space="preserve" text-anchor="middle" x="613.88" y="-520.6" font-family="Helvetica,sans-Serif" font-size="12.00">&quot;This is a match&quot;</text>
<text xml:space="preserve" text-anchor="middle" x="613.88" y="-507.85" font-family="Helvetica,sans-Serif" font-size="12.00">&#45;&gt; POST /matches/decision (CONFIRMED)</text>
<text xml:space="preserve" text-anchor="middle" x="613.88" y="-495.1" font-family="Helvetica,sans-Serif" font-size="12.00">Owner gets a notification</text>
</g>
<!-- matchChoice&#45;&gt;matchConfirm -->
<g id="edge18" class="edge">
<title>matchChoice&#45;&gt;matchConfirm</title>
<path fill="none" stroke="black" d="M499.75,-613.75C499.75,-613.75 499.75,-547.99 499.75,-547.99"/>
<polygon fill="black" stroke="black" points="503.25,-547.99 499.75,-537.99 496.25,-547.99 503.25,-547.99"/>
<text xml:space="preserve" text-anchor="middle" x="517.12" y="-555.75" font-family="Helvetica,sans-Serif" font-size="10.00">Confirm</text>
</g>
<!-- matchDismiss -->
<g id="node18" class="node">
<title>matchDismiss</title>
<path fill="#fbe2df" stroke="black" d="M310.25,-536C310.25,-536 95.5,-536 95.5,-536 89.5,-536 83.5,-530 83.5,-524 83.5,-524 83.5,-501.75 83.5,-501.75 83.5,-495.75 89.5,-489.75 95.5,-489.75 95.5,-489.75 310.25,-489.75 310.25,-489.75 316.25,-489.75 322.25,-495.75 322.25,-501.75 322.25,-501.75 322.25,-524 322.25,-524 322.25,-530 316.25,-536 310.25,-536"/>
<text xml:space="preserve" text-anchor="middle" x="202.88" y="-520.6" font-family="Helvetica,sans-Serif" font-size="12.00">&quot;Not a match&quot;</text>
<text xml:space="preserve" text-anchor="middle" x="202.88" y="-507.85" font-family="Helvetica,sans-Serif" font-size="12.00">&#45;&gt; POST /matches/decision (DISMISSED)</text>
<text xml:space="preserve" text-anchor="middle" x="202.88" y="-495.1" font-family="Helvetica,sans-Serif" font-size="12.00">Candidate removed from future lists</text>
</g>
<!-- matchChoice&#45;&gt;matchDismiss -->
<g id="edge19" class="edge">
<title>matchChoice&#45;&gt;matchDismiss</title>
<path fill="none" stroke="black" d="M313.81,-613.75C313.81,-613.75 313.81,-547.99 313.81,-547.99"/>
<polygon fill="black" stroke="black" points="317.31,-547.99 313.81,-537.99 310.31,-547.99 317.31,-547.99"/>
<text xml:space="preserve" text-anchor="middle" x="309.88" y="-555.75" font-family="Helvetica,sans-Serif" font-size="10.00">Dismiss</text>
</g>
<!-- matchNone -->
<g id="node19" class="node">
<title>matchNone</title>
<path fill="#eeeeee" stroke="black" d="M461,-530.88C461,-530.88 352.75,-530.88 352.75,-530.88 346.75,-530.88 340.75,-524.88 340.75,-518.88 340.75,-518.88 340.75,-506.88 340.75,-506.88 340.75,-500.88 346.75,-494.88 352.75,-494.88 352.75,-494.88 461,-494.88 461,-494.88 467,-494.88 473,-500.88 473,-506.88 473,-506.88 473,-518.88 473,-518.88 473,-524.88 467,-530.88 461,-530.88"/>
<text xml:space="preserve" text-anchor="middle" x="406.88" y="-514.23" font-family="Helvetica,sans-Serif" font-size="12.00">No action</text>
<text xml:space="preserve" text-anchor="middle" x="406.88" y="-501.48" font-family="Helvetica,sans-Serif" font-size="12.00">(just browsing scores)</text>
</g>
<!-- matchChoice&#45;&gt;matchNone -->
<g id="edge20" class="edge">
<title>matchChoice&#45;&gt;matchNone</title>
<path fill="none" stroke="black" d="M406.88,-582.74C406.88,-582.74 406.88,-542.72 406.88,-542.72"/>
<polygon fill="black" stroke="black" points="410.38,-542.72 406.88,-532.72 403.38,-542.72 410.38,-542.72"/>
<text xml:space="preserve" text-anchor="middle" x="433.88" y="-555.75" font-family="Helvetica,sans-Serif" font-size="10.00">Browse only</text>
</g>
<!-- matchConfirm&#45;&gt;matchResults -->
<g id="edge21" class="edge">
<title>matchConfirm&#45;&gt;matchResults</title>
<path fill="none" stroke="black" d="M513.56,-536.35C513.56,-536.35 513.56,-710.25 513.56,-710.25"/>
<polygon fill="black" stroke="black" points="510.06,-710.25 513.56,-720.25 517.06,-710.25 510.06,-710.25"/>
<text xml:space="preserve" text-anchor="middle" x="594" y="-612.88" font-family="Helvetica,sans-Serif" font-size="10.00">stay on page</text>
</g>
<!-- submitClaimBtn -->
<g id="node20" class="node">
<title>submitClaimBtn</title>
<path fill="#e4f1ea" stroke="black" d="M677.75,-452.75C677.75,-452.75 520,-452.75 520,-452.75 514,-452.75 508,-446.75 508,-440.75 508,-440.75 508,-428.75 508,-428.75 508,-422.75 514,-416.75 520,-416.75 520,-416.75 677.75,-416.75 677.75,-416.75 683.75,-416.75 689.75,-422.75 689.75,-428.75 689.75,-428.75 689.75,-440.75 689.75,-440.75 689.75,-446.75 683.75,-452.75 677.75,-452.75"/>
<text xml:space="preserve" text-anchor="middle" x="598.88" y="-436.1" font-family="Helvetica,sans-Serif" font-size="12.00">&quot;Submit a Claim&quot;</text>
<text xml:space="preserve" text-anchor="middle" x="598.88" y="-423.35" font-family="Helvetica,sans-Serif" font-size="12.00">(pre&#45;fills lost + found report IDs)</text>
</g>
<!-- matchConfirm&#45;&gt;submitClaimBtn -->
<g id="edge24" class="edge">
<title>matchConfirm&#45;&gt;submitClaimBtn</title>
<path fill="none" stroke="black" d="M598.88,-489.43C598.88,-489.43 598.88,-464.47 598.88,-464.47"/>
<polygon fill="black" stroke="black" points="602.38,-464.47 598.88,-454.47 595.38,-464.47 602.38,-464.47"/>
</g>
<!-- matchDismiss&#45;&gt;matchResults -->
<g id="edge22" class="edge">
<title>matchDismiss&#45;&gt;matchResults</title>
<path fill="none" stroke="black" d="M300.19,-536.35C300.19,-536.35 300.19,-710.25 300.19,-710.25"/>
<polygon fill="black" stroke="black" points="296.69,-710.25 300.19,-720.25 303.69,-710.25 296.69,-710.25"/>
<text xml:space="preserve" text-anchor="middle" x="245" y="-612.88" font-family="Helvetica,sans-Serif" font-size="10.00">stay on page</text>
</g>
<!-- matchNone&#45;&gt;submitClaimBtn -->
<g id="edge23" class="edge">
<title>matchNone&#45;&gt;submitClaimBtn</title>
<path fill="none" stroke="black" d="M416,-494.42C416,-471.39 416,-435 416,-435 416,-435 496.19,-435 496.19,-435"/>
<polygon fill="black" stroke="black" points="496.19,-438.5 506.19,-435 496.19,-431.5 496.19,-438.5"/>
</g>
<!-- claimForm -->
<g id="node21" class="node">
<title>claimForm</title>
<path fill="#f5f6f8" stroke="black" d="M705.88,-379.75C705.88,-379.75 491.88,-379.75 491.88,-379.75 485.88,-379.75 479.88,-373.75 479.88,-367.75 479.88,-367.75 479.88,-345.5 479.88,-345.5 479.88,-339.5 485.88,-333.5 491.88,-333.5 491.88,-333.5 705.88,-333.5 705.88,-333.5 711.88,-333.5 717.88,-339.5 717.88,-345.5 717.88,-345.5 717.88,-367.75 717.88,-367.75 717.88,-373.75 711.88,-379.75 705.88,-379.75"/>
<text xml:space="preserve" text-anchor="middle" x="598.88" y="-364.35" font-family="Helvetica,sans-Serif" font-size="12.00">Submit a Claim form</text>
<text xml:space="preserve" text-anchor="middle" x="598.88" y="-351.6" font-family="Helvetica,sans-Serif" font-size="12.00">(/claims/submit)</text>
<text xml:space="preserve" text-anchor="middle" x="598.88" y="-338.85" font-family="Helvetica,sans-Serif" font-size="12.00">evidence text (&gt;=10 chars), optional photo</text>
</g>
<!-- submitClaimBtn&#45;&gt;claimForm -->
<g id="edge25" class="edge">
<title>submitClaimBtn&#45;&gt;claimForm</title>
<path fill="none" stroke="black" d="M598.88,-416.63C598.88,-416.63 598.88,-391.5 598.88,-391.5"/>
<polygon fill="black" stroke="black" points="602.38,-391.5 598.88,-381.5 595.38,-391.5 602.38,-391.5"/>
</g>
<!-- claimValid -->
<g id="node22" class="node">
<title>claimValid</title>
<polygon fill="#fdf1dc" stroke="black" points="598.88,-296.5 487.62,-263 598.88,-229.5 710.12,-263 598.88,-296.5"/>
<text xml:space="preserve" text-anchor="middle" x="598.88" y="-264.35" font-family="Helvetica,sans-Serif" font-size="12.00">Evidence</text>
<text xml:space="preserve" text-anchor="middle" x="598.88" y="-251.6" font-family="Helvetica,sans-Serif" font-size="12.00">&gt;= 10 characters?</text>
</g>
<!-- claimForm&#45;&gt;claimValid -->
<g id="edge26" class="edge">
<title>claimForm&#45;&gt;claimValid</title>
<path fill="none" stroke="black" d="M598.88,-333.48C598.88,-333.48 598.88,-308.35 598.88,-308.35"/>
<polygon fill="black" stroke="black" points="602.38,-308.35 598.88,-298.35 595.38,-308.35 602.38,-308.35"/>
</g>
<!-- claimError -->
<g id="node23" class="node">
<title>claimError</title>
<path fill="#fbe2df" stroke="black" d="M528.75,-177.12C528.75,-177.12 371,-177.12 371,-177.12 365,-177.12 359,-171.12 359,-165.12 359,-165.12 359,-153.12 359,-153.12 359,-147.12 365,-141.12 371,-141.12 371,-141.12 528.75,-141.12 528.75,-141.12 534.75,-141.12 540.75,-147.12 540.75,-153.12 540.75,-153.12 540.75,-165.12 540.75,-165.12 540.75,-171.12 534.75,-177.12 528.75,-177.12"/>
<text xml:space="preserve" text-anchor="middle" x="449.88" y="-160.47" font-family="Helvetica,sans-Serif" font-size="12.00">Browser blocks submit,</text>
<text xml:space="preserve" text-anchor="middle" x="449.88" y="-147.72" font-family="Helvetica,sans-Serif" font-size="12.00">shows character&#45;count warning</text>
</g>
<!-- claimValid&#45;&gt;claimError -->
<g id="edge27" class="edge">
<title>claimValid&#45;&gt;claimError</title>
<path fill="none" stroke="black" d="M514.19,-254.5C514.19,-254.5 514.19,-188.93 514.19,-188.93"/>
<polygon fill="black" stroke="black" points="517.69,-188.93 514.19,-178.93 510.69,-188.93 517.69,-188.93"/>
<text xml:space="preserve" text-anchor="middle" x="549.25" y="-202" font-family="Helvetica,sans-Serif" font-size="10.00">No</text>
</g>
<!-- claimSaved -->
<g id="node24" class="node">
<title>claimSaved</title>
<path fill="#e4f1ea" stroke="black" d="M775,-182.25C775,-182.25 570.75,-182.25 570.75,-182.25 564.75,-182.25 558.75,-176.25 558.75,-170.25 558.75,-170.25 558.75,-148 558.75,-148 558.75,-142 564.75,-136 570.75,-136 570.75,-136 775,-136 775,-136 781,-136 787,-142 787,-148 787,-148 787,-170.25 787,-170.25 787,-176.25 781,-182.25 775,-182.25"/>
<text xml:space="preserve" text-anchor="middle" x="672.88" y="-166.85" font-family="Helvetica,sans-Serif" font-size="12.00">POST /api/claims</text>
<text xml:space="preserve" text-anchor="middle" x="672.88" y="-154.1" font-family="Helvetica,sans-Serif" font-size="12.00">Claim created (status = PENDING)</text>
<text xml:space="preserve" text-anchor="middle" x="672.88" y="-141.35" font-family="Helvetica,sans-Serif" font-size="12.00">Both reports &#45;&gt; CLAIM_IN_PROGRESS</text>
</g>
<!-- claimValid&#45;&gt;claimSaved -->
<g id="edge29" class="edge">
<title>claimValid&#45;&gt;claimSaved</title>
<path fill="none" stroke="black" d="M634.44,-239.69C634.44,-239.69 634.44,-194.23 634.44,-194.23"/>
<polygon fill="black" stroke="black" points="637.94,-194.23 634.44,-184.23 630.94,-194.23 637.94,-194.23"/>
<text xml:space="preserve" text-anchor="middle" x="646.12" y="-202" font-family="Helvetica,sans-Serif" font-size="10.00">Yes</text>
</g>
<!-- claimError&#45;&gt;claimForm -->
<g id="edge28" class="edge">
<title>claimError&#45;&gt;claimForm</title>
<path fill="none" stroke="black" d="M483.75,-177.35C483.75,-177.35 483.75,-321.8 483.75,-321.8"/>
<polygon fill="black" stroke="black" points="480.25,-321.8 483.75,-331.8 487.25,-321.8 480.25,-321.8"/>
</g>
<!-- trackByCode -->
<g id="node25" class="node">
<title>trackByCode</title>
<path fill="#f5f6f8" stroke="black" d="M755.12,-99C755.12,-99 590.62,-99 590.62,-99 584.62,-99 578.62,-93 578.62,-87 578.62,-87 578.62,-75 578.62,-75 578.62,-69 584.62,-63 590.62,-63 590.62,-63 755.12,-63 755.12,-63 761.12,-63 767.12,-69 767.12,-75 767.12,-75 767.12,-87 767.12,-87 767.12,-93 761.12,-99 755.12,-99"/>
<text xml:space="preserve" text-anchor="middle" x="672.88" y="-82.35" font-family="Helvetica,sans-Serif" font-size="12.00">Redirected to Track Claim</text>
<text xml:space="preserve" text-anchor="middle" x="672.88" y="-69.6" font-family="Helvetica,sans-Serif" font-size="12.00">(/claims/track?code=CLM&#45;xxxxx)</text>
</g>
<!-- claimSaved&#45;&gt;trackByCode -->
<g id="edge30" class="edge">
<title>claimSaved&#45;&gt;trackByCode</title>
<path fill="none" stroke="black" d="M672.88,-135.68C672.88,-135.68 672.88,-110.72 672.88,-110.72"/>
<polygon fill="black" stroke="black" points="676.38,-110.72 672.88,-100.72 669.38,-110.72 676.38,-110.72"/>
</g>
<!-- trackByCode&#45;&gt;end -->
<g id="edge31" class="edge">
<title>trackByCode&#45;&gt;end</title>
<path fill="none" stroke="black" d="M672.88,-62.78C672.88,-62.78 672.88,-37.82 672.88,-37.82"/>
<polygon fill="black" stroke="black" points="676.38,-37.82 672.88,-27.82 669.38,-37.82 676.38,-37.82"/>
</g>
<!-- dashChoice -->
<g id="node27" class="node">
<title>dashChoice</title>
<polygon fill="#fdf1dc" stroke="black" points="416.88,-1201 334.12,-1167.5 416.87,-1134 499.62,-1167.5 416.88,-1201"/>
<text xml:space="preserve" text-anchor="middle" x="416.88" y="-1168.85" font-family="Helvetica,sans-Serif" font-size="12.00">Quick Action</text>
<text xml:space="preserve" text-anchor="middle" x="416.88" y="-1156.1" font-family="Helvetica,sans-Serif" font-size="12.00">clicked?</text>
</g>
<!-- studentDash&#45;&gt;dashChoice -->
<g id="edge33" class="edge">
<title>studentDash&#45;&gt;dashChoice</title>
<path fill="none" stroke="black" d="M416.88,-1277.7C416.88,-1277.7 416.88,-1212.86 416.88,-1212.86"/>
<polygon fill="black" stroke="black" points="420.38,-1212.86 416.88,-1202.86 413.38,-1212.86 420.38,-1212.86"/>
</g>
<!-- dashChoice&#45;&gt;reportForm -->
<g id="edge34" class="edge">
<title>dashChoice&#45;&gt;reportForm</title>
<path fill="none" stroke="black" d="M343.31,-1163.31C343.31,-1163.31 343.31,-1098.54 343.31,-1098.54"/>
<polygon fill="black" stroke="black" points="346.81,-1098.54 343.31,-1088.54 339.81,-1098.54 346.81,-1098.54"/>
<text xml:space="preserve" text-anchor="middle" x="339.62" y="-1106.5" font-family="Helvetica,sans-Serif" font-size="10.00">Report Lost Item</text>
</g>
<!-- dashChoice&#45;&gt;foundItemsPage -->
<g id="edge35" class="edge">
<title>dashChoice&#45;&gt;foundItemsPage</title>
<path fill="none" stroke="black" d="M438.62,-1142.48C438.62,-1142.48 438.62,-1087.15 438.62,-1087.15"/>
<polygon fill="black" stroke="black" points="442.13,-1087.15 438.63,-1077.15 435.13,-1087.15 442.13,-1087.15"/>
<text xml:space="preserve" text-anchor="middle" x="457.25" y="-1106.5" font-family="Helvetica,sans-Serif" font-size="10.00">Browse Found Items</text>
</g>
<!-- dashChoice&#45;&gt;trackForm -->
<g id="edge36" class="edge">
<title>dashChoice&#45;&gt;trackForm</title>
<path fill="none" stroke="black" d="M437.92,-1142C487.99,-1142 610.06,-1142 610.06,-1142 610.06,-1142 610.06,-1092.37 610.06,-1092.37"/>
<polygon fill="black" stroke="black" points="613.56,-1092.37 610.06,-1082.37 606.56,-1092.37 613.56,-1092.37"/>
<text xml:space="preserve" text-anchor="middle" x="556.62" y="-1106.5" font-family="Helvetica,sans-Serif" font-size="10.00">Track a Claim</text>
</g>
<!-- foundDetail -->
<g id="node29" class="node">
<title>foundDetail</title>
<path fill="#f5f6f8" stroke="black" d="M570.12,-965C570.12,-965 483.62,-965 483.62,-965 477.62,-965 471.62,-959 471.62,-953 471.62,-953 471.62,-941 471.62,-941 471.62,-935 477.62,-929 483.62,-929 483.62,-929 570.12,-929 570.12,-929 576.12,-929 582.12,-935 582.12,-941 582.12,-941 582.12,-953 582.12,-953 582.12,-959 576.12,-965 570.12,-965"/>
<text xml:space="preserve" text-anchor="middle" x="526.88" y="-948.35" font-family="Helvetica,sans-Serif" font-size="12.00">Found Item Detail</text>
<text xml:space="preserve" text-anchor="middle" x="526.88" y="-935.6" font-family="Helvetica,sans-Serif" font-size="12.00">(/found&#45;items/:id)</text>
</g>
<!-- foundItemsPage&#45;&gt;foundDetail -->
<g id="edge38" class="edge">
<title>foundItemsPage&#45;&gt;foundDetail</title>
<path fill="none" stroke="black" d="M526.88,-1039.04C526.88,-1039.04 526.88,-976.75 526.88,-976.75"/>
<polygon fill="black" stroke="black" points="530.38,-976.75 526.88,-966.75 523.38,-976.75 530.38,-976.75"/>
<text xml:space="preserve" text-anchor="middle" x="531.62" y="-1000.25" font-family="Helvetica,sans-Serif" font-size="10.00">click an item</text>
</g>
<!-- looksLikeMine -->
<g id="node30" class="node">
<title>looksLikeMine</title>
<path fill="#e4f1ea" stroke="black" d="M744.5,-704.25C744.5,-704.25 627.25,-704.25 627.25,-704.25 621.25,-704.25 615.25,-698.25 615.25,-692.25 615.25,-692.25 615.25,-680.25 615.25,-680.25 615.25,-674.25 621.25,-668.25 627.25,-668.25 627.25,-668.25 744.5,-668.25 744.5,-668.25 750.5,-668.25 756.5,-674.25 756.5,-680.25 756.5,-680.25 756.5,-692.25 756.5,-692.25 756.5,-698.25 750.5,-704.25 744.5,-704.25"/>
<text xml:space="preserve" text-anchor="middle" x="685.88" y="-687.6" font-family="Helvetica,sans-Serif" font-size="12.00">&quot;This looks like mine —</text>
<text xml:space="preserve" text-anchor="middle" x="685.88" y="-674.85" font-family="Helvetica,sans-Serif" font-size="12.00">Submit a Claim&quot;</text>
</g>
<!-- foundDetail&#45;&gt;looksLikeMine -->
<g id="edge39" class="edge">
<title>foundDetail&#45;&gt;looksLikeMine</title>
<path fill="none" stroke="black" d="M550.44,-928.65C550.44,-869.24 550.44,-686 550.44,-686 550.44,-686 603.47,-686 603.47,-686"/>
<polygon fill="black" stroke="black" points="603.47,-689.5 613.47,-686 603.47,-682.5 603.47,-689.5"/>
</g>
<!-- looksLikeMine&#45;&gt;claimForm -->
<g id="edge40" class="edge">
<title>looksLikeMine&#45;&gt;claimForm</title>
<path fill="none" stroke="black" d="M746.56,-668.08C746.56,-599.06 746.56,-357 746.56,-357 746.56,-357 729.6,-357 729.6,-357"/>
<polygon fill="black" stroke="black" points="729.6,-353.5 719.6,-357 729.6,-360.5 729.6,-353.5"/>
</g>
<!-- trackFound -->
<g id="node32" class="node">
<title>trackFound</title>
<polygon fill="#fdf1dc" stroke="black" points="814.88,-980.5 674.38,-947 814.88,-913.5 955.38,-947 814.88,-980.5"/>
<text xml:space="preserve" text-anchor="middle" x="814.88" y="-948.35" font-family="Helvetica,sans-Serif" font-size="12.00">Code found &amp;</text>
<text xml:space="preserve" text-anchor="middle" x="814.88" y="-935.6" font-family="Helvetica,sans-Serif" font-size="12.00">accessible to this user?</text>
</g>
<!-- trackForm&#45;&gt;trackFound -->
<g id="edge42" class="edge">
<title>trackForm&#45;&gt;trackFound</title>
<path fill="none" stroke="black" d="M705.75,-1033.87C705.75,-1033.87 705.75,-966.02 705.75,-966.02"/>
<polygon fill="black" stroke="black" points="709.25,-966.02 705.75,-956.02 702.25,-966.02 709.25,-966.02"/>
</g>
<!-- trackResult -->
<g id="node33" class="node">
<title>trackResult</title>
<path fill="#e4f1ea" stroke="black" d="M880.62,-812.25C880.62,-812.25 749.12,-812.25 749.12,-812.25 743.12,-812.25 737.12,-806.25 737.12,-800.25 737.12,-800.25 737.12,-788.25 737.12,-788.25 737.12,-782.25 743.12,-776.25 749.12,-776.25 749.12,-776.25 880.62,-776.25 880.62,-776.25 886.62,-776.25 892.62,-782.25 892.62,-788.25 892.62,-788.25 892.62,-800.25 892.62,-800.25 892.62,-806.25 886.62,-812.25 880.62,-812.25"/>
<text xml:space="preserve" text-anchor="middle" x="814.88" y="-795.6" font-family="Helvetica,sans-Serif" font-size="12.00">Claim card: status, score,</text>
<text xml:space="preserve" text-anchor="middle" x="814.88" y="-782.85" font-family="Helvetica,sans-Serif" font-size="12.00">evidence, decision reason</text>
</g>
<!-- trackFound&#45;&gt;trackResult -->
<g id="edge43" class="edge">
<title>trackFound&#45;&gt;trackResult</title>
<path fill="none" stroke="black" d="M828.81,-916.46C828.81,-916.46 828.81,-824.25 828.81,-824.25"/>
<polygon fill="black" stroke="black" points="832.31,-824.25 828.81,-814.25 825.31,-824.25 832.31,-824.25"/>
<text xml:space="preserve" text-anchor="middle" x="823.12" y="-886" font-family="Helvetica,sans-Serif" font-size="10.00">Yes</text>
</g>
<!-- trackNotFound -->
<g id="node34" class="node">
<title>trackNotFound</title>
<path fill="#fbe2df" stroke="black" d="M753,-866.25C753,-866.25 620.75,-866.25 620.75,-866.25 614.75,-866.25 608.75,-860.25 608.75,-854.25 608.75,-854.25 608.75,-842.25 608.75,-842.25 608.75,-836.25 614.75,-830.25 620.75,-830.25 620.75,-830.25 753,-830.25 753,-830.25 759,-830.25 765,-836.25 765,-842.25 765,-842.25 765,-854.25 765,-854.25 765,-860.25 759,-866.25 753,-866.25"/>
<text xml:space="preserve" text-anchor="middle" x="686.88" y="-843.23" font-family="Helvetica,sans-Serif" font-size="12.00">&quot;Could not find that claim.&quot;</text>
</g>
<!-- trackFound&#45;&gt;trackNotFound -->
<g id="edge44" class="edge">
<title>trackFound&#45;&gt;trackNotFound</title>
<path fill="none" stroke="black" d="M719.69,-936.05C719.69,-936.05 719.69,-878.14 719.69,-878.14"/>
<polygon fill="black" stroke="black" points="723.19,-878.14 719.69,-868.14 716.19,-878.14 723.19,-878.14"/>
<text xml:space="preserve" text-anchor="middle" x="750.25" y="-886" font-family="Helvetica,sans-Serif" font-size="10.00">No</text>
</g>
<!-- trackResult&#45;&gt;end -->
<g id="edge45" class="edge">
<title>trackResult&#45;&gt;end</title>
<path fill="none" stroke="black" d="M839.81,-776.09C839.81,-658.79 839.81,-13 839.81,-13 839.81,-13 697.77,-13 697.77,-13"/>
<polygon fill="black" stroke="black" points="697.77,-9.5 687.77,-13 697.77,-16.5 697.77,-9.5"/>
</g>
<!-- trackNotFound&#45;&gt;trackForm -->
<g id="edge46" class="edge">
<title>trackNotFound&#45;&gt;trackForm</title>
<path fill="none" stroke="black" d="M641.56,-866.43C641.56,-866.43 641.56,-1022.42 641.56,-1022.42"/>
<polygon fill="black" stroke="black" points="638.06,-1022.42 641.56,-1032.42 645.06,-1022.42 638.06,-1022.42"/>
</g>
<!-- notifChoice -->
<g id="node36" class="node">
<title>notifChoice</title>
<polygon fill="#fdf1dc" stroke="black" points="869.88,-1185.5 804.11,-1167.5 869.88,-1149.5 935.64,-1167.5 869.88,-1185.5"/>
<text xml:space="preserve" text-anchor="middle" x="869.88" y="-1162.47" font-family="Helvetica,sans-Serif" font-size="12.00">Mark read?</text>
</g>
<!-- notifPage&#45;&gt;notifChoice -->
<g id="edge48" class="edge">
<title>notifPage&#45;&gt;notifChoice</title>
<path fill="none" stroke="black" d="M869.88,-1272.53C869.88,-1272.53 869.88,-1197.46 869.88,-1197.46"/>
<polygon fill="black" stroke="black" points="873.38,-1197.46 869.88,-1187.46 866.38,-1197.46 873.38,-1197.46"/>
</g>
<!-- notifOne -->
<g id="node37" class="node">
<title>notifOne</title>
<path fill="#e4f1ea" stroke="black" d="M886.62,-1075.25C886.62,-1075.25 767.12,-1075.25 767.12,-1075.25 761.12,-1075.25 755.12,-1069.25 755.12,-1063.25 755.12,-1063.25 755.12,-1051.25 755.12,-1051.25 755.12,-1045.25 761.12,-1039.25 767.12,-1039.25 767.12,-1039.25 886.62,-1039.25 886.62,-1039.25 892.62,-1039.25 898.62,-1045.25 898.62,-1051.25 898.62,-1051.25 898.62,-1063.25 898.62,-1063.25 898.62,-1069.25 892.62,-1075.25 886.62,-1075.25"/>
<text xml:space="preserve" text-anchor="middle" x="826.88" y="-1052.22" font-family="Helvetica,sans-Serif" font-size="12.00">&quot;Mark read&quot; on one item</text>
</g>
<!-- notifChoice&#45;&gt;notifOne -->
<g id="edge49" class="edge">
<title>notifChoice&#45;&gt;notifOne</title>
<path fill="none" stroke="black" d="M851.37,-1154.42C851.37,-1154.42 851.37,-1086.95 851.37,-1086.95"/>
<polygon fill="black" stroke="black" points="854.87,-1086.95 851.37,-1076.95 847.87,-1086.95 854.87,-1086.95"/>
<text xml:space="preserve" text-anchor="middle" x="868.75" y="-1106.5" font-family="Helvetica,sans-Serif" font-size="10.00">One item</text>
</g>
<!-- notifAll -->
<g id="node38" class="node">
<title>notifAll</title>
<path fill="#e4f1ea" stroke="black" d="M998.88,-1075.25C998.88,-1075.25 928.88,-1075.25 928.88,-1075.25 922.88,-1075.25 916.88,-1069.25 916.88,-1063.25 916.88,-1063.25 916.88,-1051.25 916.88,-1051.25 916.88,-1045.25 922.88,-1039.25 928.88,-1039.25 928.88,-1039.25 998.88,-1039.25 998.88,-1039.25 1004.88,-1039.25 1010.88,-1045.25 1010.88,-1051.25 1010.88,-1051.25 1010.88,-1063.25 1010.88,-1063.25 1010.88,-1069.25 1004.88,-1075.25 998.88,-1075.25"/>
<text xml:space="preserve" text-anchor="middle" x="963.88" y="-1052.22" font-family="Helvetica,sans-Serif" font-size="12.00">&quot;Mark all read&quot;</text>
</g>
<!-- notifChoice&#45;&gt;notifAll -->
<g id="edge50" class="edge">
<title>notifChoice&#45;&gt;notifAll</title>
<path fill="none" stroke="black" d="M926.26,-1164.77C926.26,-1164.77 926.26,-1087.05 926.26,-1087.05"/>
<polygon fill="black" stroke="black" points="929.76,-1087.05 926.26,-1077.05 922.76,-1087.05 929.76,-1087.05"/>
<text xml:space="preserve" text-anchor="middle" x="930.5" y="-1106.5" font-family="Helvetica,sans-Serif" font-size="10.00">All</text>
</g>
<!-- notifOne&#45;&gt;notifPage -->
<g id="edge51" class="edge">
<title>notifOne&#45;&gt;notifPage</title>
<path fill="none" stroke="black" d="M779.62,-1075.6C779.62,-1075.6 779.62,-1261.01 779.62,-1261.01"/>
<polygon fill="black" stroke="black" points="776.12,-1261.01 779.62,-1271.01 783.12,-1261.01 776.12,-1261.01"/>
</g>
<!-- notifAll&#45;&gt;notifPage -->
<g id="edge52" class="edge">
<title>notifAll&#45;&gt;notifPage</title>
<path fill="none" stroke="black" d="M950.13,-1075.6C950.13,-1075.6 950.13,-1261.01 950.13,-1261.01"/>
<polygon fill="black" stroke="black" points="946.63,-1261.01 950.13,-1271.01 953.63,-1261.01 946.63,-1261.01"/>
</g>
</g>
</svg>
